<mxfile host="app.diagrams.net" agent="Mozilla/5.0 (Windows NT 10.0; Win64; x64) AppleWebKit/537.36 (KHTML, like Gecko) Chrome/128.0.0.0 Safari/537.36" version="24.7.16">
  <diagram name="第 1 页" id="oWA66ZH2d-IUHjM5uqGX">
    <mxGraphModel dx="979" dy="534" grid="1" gridSize="10" guides="1" tooltips="1" connect="1" arrows="1" fold="1" page="1" pageScale="1" pageWidth="827" pageHeight="1169" math="0" shadow="0">
      <root>
        <mxCell id="0" />
        <mxCell id="1" parent="0" />
        <mxCell id="gk7JY4we6GMxA6r-kf3l-40" value="" style="rounded=1;whiteSpace=wrap;html=1;fillColor=#fff2cc;strokeColor=#d6b656;" parent="1" vertex="1">
          <mxGeometry x="636.75" y="550" width="83.25" height="110" as="geometry" />
        </mxCell>
        <mxCell id="gk7JY4we6GMxA6r-kf3l-1" value="" style="group;strokeColor=none;dashed=1;strokeWidth=2;" parent="1" vertex="1" connectable="0">
          <mxGeometry x="290" y="560" width="67" height="90" as="geometry" />
        </mxCell>
        <mxCell id="gk7JY4we6GMxA6r-kf3l-2" value="" style="shape=image;editableCssRules=.*;verticalLabelPosition=bottom;labelBackgroundColor=default;verticalAlign=top;aspect=fixed;imageAspect=0;image=data:image/svg+xml,PHN2ZyB4bWxucz0iaHR0cDovL3d3dy53My5vcmcvMjAwMC9zdmciIHZpZXdCb3g9Ii0wLjUgLTAuNSAyNS44NjcgMjgiIGhlaWdodD0iMjgiIHdpZHRoPSIyNS44NjciPiYjeGE7CSAgPHN0eWxlIHR5cGU9InRleHQvY3NzIj4uc3QwIHsgc3RvcC1jb2xvcjogcmdiKDIxNSwgMTU1LCAwKTsgfSAuc3QxIHsgc3RvcC1jb2xvcjogcmdiKDE4MSwgMTU0LCA3Mik7IH0gPC9zdHlsZT4mI3hhOwk8ZGVmcz4mI3hhOwkJPGxpbmVhckdyYWRpZW50IGdyYWRpZW50VW5pdHM9InVzZXJTcGFjZU9uVXNlIiB5Mj0iMjMuNjEzIiB4Mj0iMjMuMjI3IiB5MT0iMy40NzQiIHgxPSIxLjg0NiIgaWQ9IkEiPiYjeGE7CQkJPHN0b3AgY2xhc3M9InN0MCIvPiYjeGE7CQkJPHN0b3AgY2xhc3M9InN0MSIgb2Zmc2V0PSIxIi8+JiN4YTsJCTwvbGluZWFyR3JhZGllbnQ+JiN4YTsJPC9kZWZzPiYjeGE7CTxwYXRoIGZpbGw9InVybCgjQSkiIGQ9Ik0xMy4zOSAyNy41aC0xLjkxNWMtLjY1NiAwLTEuMjU3LS4yMTktMS44MDMtLjY1NmEyLjQ2IDIuNDYgMCAwIDEtLjkzMS0xLjU4NWwtLjM4My0xLjgwNC0yLjM1LTEuNDIzLTEuNjQxLjcxYTMuNjEgMy42MSAwIDAgMS0xLjA0LjE2NWMtLjUwOSAwLTEuMDAzLS4xMjgtMS40NzctLjM4My0uNDUyLS4yNzEtLjgxMy0uNjcxLTEuMDM4LTEuMTQ4bC0xLjAzOS0yLjAyM2MtLjE2OS0uMzc5LS4yNjItLjc4OS0uMjczLTEuMjA0YTIuNzUgMi43NSAwIDAgMSAxLjE0OC0yLjI5NmwxLjI1OC0uOTI5di0yLjg0NWwtMS4zMTItLjk4M0MtLjEzNiAxMC41NDYtLjUgOS43OTktLjUgOC44NTJjMC0uMzY2LjA5MS0uNzY3LjI3My0xLjIwNGwxLjA0LTIuMDIzYy4yNTUtLjUxMS42LS44OTMgMS4wMzgtMS4xNDguNDc0LS4yNTUuOTY4LS4zODMgMS40NzctLjM4My40MDIgMCAuNzQ3LjA3NCAxLjA0LjIxOWwxLjY0MS42NTYgMi4zNS0xLjQyMy4zODMtMS44MDJBMi42OCAyLjY4IDAgMCAxIDkuNzI3LjE1NmEyLjYxIDIuNjEgMCAwIDEgMS43NS0uNjU2aDEuOTEzYTIuNjEgMi42MSAwIDAgMSAxLjc1LjY1NmMuNTExLjQwMy44NC45MjkuOTg1IDEuNTg2bC4zMjcgMS44MDYgMi40MDYgMS40MjEgMS42NDItLjY1NmMuMjkxLS4xNDUuNjM3LS4yMTkgMS4wNC0uMjE5YTIuNzcgMi43NyAwIDAgMSAxLjQyMS4zODNjLjQ3My4yNTUuODQuNjM3IDEuMDk0IDEuMTQ4bC45ODUgMi4wMjNjLjIxNy4zNjYuMzI3Ljc4NC4zMjcgMS4yNTggMCAuOTEtLjM4MyAxLjY0Mi0xLjE0OCAyLjE4OGwtMS4zMTIuOTg1djIuODQ0bDEuMzEzLjkyOGMuNzY1LjU4NSAxLjE0OCAxLjMzMiAxLjE0OCAyLjI0MyAwIC40MzgtLjExLjg1OC0uMzI5IDEuMjU4bC0uOTgzIDIuMDIzYy0uMjU2LjUxMS0uNjE5Ljg5Mi0xLjA5NCAxLjE0OC0uNDM3LjI1Ni0uOTEuMzgzLTEuNDIzLjM4My0uMzY0IDAtLjcxLS4wNTQtMS4wMzgtLjE2NWwtMS42NDItLjcxLTIuNDA2IDEuNDIzLS4zMjcgMS44MDJjLS4xNDcuNjU4LS40NzQgMS4xODYtLjk4NSAxLjU4N2EyLjYxIDIuNjEgMCAwIDEtMS43NS42NTZ6bS03LjM4My04LjI1OGMuNDc0IDAgLjk0OS4xNDcgMS40MjMuNDM4bDIuNDA2IDEuNDIzYy43My40MzggMS4xNDggMS4wNCAxLjI1OCAxLjgwNGwuMzgyIDEuODA0aDEuOTE1bC4zMjktMS44MDRjLjE4Mi0uODAyLjYyLTEuNDA0IDEuMzEzLTEuODA0bDIuMzUyLTEuNDIzYTMuMDYgMy4wNiAwIDAgMSAxLjUyOS0uNDM3Yy4xODQgMCAuMzQ2LjAxNy40OTQuMDU0YTQuMTcgNC4xNyAwIDAgMSAuNDkyLjE2NWwxLjY0Mi42NTYuOTgzLTIuMDIzLTEuMjU4LS45MjljLS43NjUtLjU4NC0xLjE0OC0xLjMzLTEuMTQ4LTIuMjQydi0yLjg0NWMwLS45MS4zODMtMS42NTcgMS4xNDgtMi4yNGwxLjI1OC0uOTMxLS45ODUtMi4wMjMtMS42NC43MWMtLjMzNS4xMTEtLjY4Ni4xNjYtMS4wNC4xNjUtLjU4MyAwLTEuMDc1LS4xMjgtMS40NzctLjM4M2wtMi4zNS0xLjQ3N2EyLjY4IDIuNjggMCAwIDEtMS4zMTItMS44MDRMMTMuMzkgMi4yOWgtMS45MTVsLS4zODIgMS44MDRjLS4xMS43NjYtLjUyOCAxLjM2Ny0xLjI1OCAxLjgwNEw3LjQ4MyA3LjM3NWMtLjQwMS4yNTUtLjg5My4zODMtMS40NzUuMzgzLS4zMjkgMC0uNjkzLS4wNTYtMS4wOTQtLjE2NWwtMS42NDEtLjcxLS45ODUgMi4wMjMgMS4zMTMuOTI5Yy43NjcuNTg1IDEuMTUgMS4zMyAxLjE1IDIuMjQ0djIuODQ0YzAgLjkxLS4zODMgMS42NTctMS4xNDggMi4yNGwtMS4zMTIuOTMxIDEuMDM4IDIuMDIzIDEuNjQxLS42NTZjLjI5LS4xNDUuNjM3LS4yMTkgMS4wNC0uMjE5em02LjQtLjE2NWE1LjU3IDUuNTcgMCAwIDEtMi4xODctLjQzN2MtLjY1My0uMjg5LTEuMjQ2LS42OTctMS43NS0xLjIwMmE1Ljc3IDUuNzcgMCAwIDEtMS4yMDQtMS43NSA1LjU4IDUuNTggMCAwIDEtLjQzNy0yLjE4NyA1LjIxIDUuMjEgMCAwIDEgLjQzOC0yLjEzM2MuMjkyLS42OTMuNjkzLTEuMjk1IDEuMjA0LTEuODA0czEuMDk0LS45MSAxLjc1LTEuMjA0YTUuNiA1LjYgMCAwIDEgMi4xODgtLjQzN2MuNzY1IDAgMS40OTUuMTQ3IDIuMTg4LjQzOHMxLjI5NS42OTMgMS44MDQgMS4yMDQuOTEgMS4xMTEgMS4yMDQgMS44MDRjLjI5MS42NTYuNDM4IDEuMzY4LjQzOCAyLjEzM2E1LjYgNS42IDAgMCAxLS40MzcgMi4xODhjLS4yOS42NTMtLjY5OCAxLjI0Ni0xLjIwNCAxLjc1LS41MTEuNTExLTEuMTExLjkxLTEuODA0IDEuMjA0cy0xLjQyMy40MzYtMi4xODcuNDM2em0wLTguMzY1Yy0uNzY3IDAtMS40MjMuMjcxLTEuOTY5LjgxOS0uMjY0LjI1NS0uNDczLjU2MS0uNjE0Ljg5OXMtLjIxMS43MDMtLjIwNiAxLjA2OWMwIC43NjcuMjczIDEuNDIzLjgyMSAxLjk2OXMxLjIwMi44MjEgMS45NjkuODIxYy44MDIgMCAxLjQ3Ny0uMjczIDIuMDIzLS44MjFzLjgyMS0xLjIwNC44MjEtMS45NjktLjI3My0xLjQyMy0uODIxLTEuOTY5YTIuNzUgMi43NSAwIDAgMC0uOTI3LS42MmMtLjM0OC0uMTQxLS43MjEtLjIwOC0xLjA5Ni0uMTk5eiIvPiYjeGE7PC9zdmc+;" parent="gk7JY4we6GMxA6r-kf3l-1" vertex="1">
          <mxGeometry x="11.220000000000008" width="41.78" height="45" as="geometry" />
        </mxCell>
        <mxCell id="gk7JY4we6GMxA6r-kf3l-3" value="多路召回&lt;div&gt;检索引擎&lt;/div&gt;" style="text;html=1;align=center;verticalAlign=middle;whiteSpace=wrap;rounded=0;fontSize=16;" parent="gk7JY4we6GMxA6r-kf3l-1" vertex="1">
          <mxGeometry y="60" width="67" height="30" as="geometry" />
        </mxCell>
        <mxCell id="rMHtlrLWpBGoDZqYdaMv-1" style="edgeStyle=none;curved=1;rounded=0;orthogonalLoop=1;jettySize=auto;html=1;entryX=0.5;entryY=1;entryDx=0;entryDy=0;fontSize=12;startSize=8;endSize=8;exitX=0.081;exitY=0.008;exitDx=0;exitDy=0;exitPerimeter=0;" edge="1" parent="1" source="gk7JY4we6GMxA6r-kf3l-4" target="gk7JY4we6GMxA6r-kf3l-21">
          <mxGeometry relative="1" as="geometry" />
        </mxCell>
        <mxCell id="rMHtlrLWpBGoDZqYdaMv-2" style="edgeStyle=none;curved=1;rounded=0;orthogonalLoop=1;jettySize=auto;html=1;entryX=0.275;entryY=1.006;entryDx=0;entryDy=0;fontSize=12;startSize=8;endSize=8;exitX=0.891;exitY=0.054;exitDx=0;exitDy=0;exitPerimeter=0;entryPerimeter=0;" edge="1" parent="1" source="gk7JY4we6GMxA6r-kf3l-4" target="gk7JY4we6GMxA6r-kf3l-40">
          <mxGeometry relative="1" as="geometry" />
        </mxCell>
        <mxCell id="gk7JY4we6GMxA6r-kf3l-4" value="过滤器" style="rounded=1;whiteSpace=wrap;html=1;fontSize=16;fillColor=#ffe6cc;strokeColor=#d79b00;fontStyle=1" parent="1" vertex="1">
          <mxGeometry x="170" y="680" width="550" height="50" as="geometry" />
        </mxCell>
        <mxCell id="gk7JY4we6GMxA6r-kf3l-20" value="&lt;span style=&quot;font-size: 16px;&quot;&gt;SQL&lt;/span&gt;" style="rounded=1;whiteSpace=wrap;html=1;fillColor=#fff2cc;strokeColor=#d6b656;" parent="1" vertex="1">
          <mxGeometry x="170" y="750" width="230" height="30" as="geometry" />
        </mxCell>
        <mxCell id="gk7JY4we6GMxA6r-kf3l-34" style="edgeStyle=orthogonalEdgeStyle;rounded=0;orthogonalLoop=1;jettySize=auto;html=1;" parent="1" source="gk7JY4we6GMxA6r-kf3l-21" edge="1">
          <mxGeometry relative="1" as="geometry">
            <mxPoint x="300" y="605" as="targetPoint" />
          </mxGeometry>
        </mxCell>
        <mxCell id="gk7JY4we6GMxA6r-kf3l-21" value="&lt;font size=&quot;3&quot;&gt;需要检索的信息类型&lt;/font&gt;" style="rounded=1;whiteSpace=wrap;html=1;fillColor=#fff2cc;strokeColor=#d6b656;" parent="1" vertex="1">
          <mxGeometry x="170" y="580" width="90" height="50" as="geometry" />
        </mxCell>
        <mxCell id="gk7JY4we6GMxA6r-kf3l-37" value="" style="sketch=0;outlineConnect=0;fillColor=#f0a30a;strokeColor=#BD7000;dashed=0;verticalLabelPosition=bottom;verticalAlign=top;align=center;html=1;fontSize=16;fontStyle=0;aspect=fixed;pointerEvents=1;shape=mxgraph.aws4.document;fontColor=#000000;" parent="1" vertex="1">
          <mxGeometry x="663.76" y="572" width="29.23" height="40" as="geometry" />
        </mxCell>
        <mxCell id="gk7JY4we6GMxA6r-kf3l-25" value="" style="rounded=1;whiteSpace=wrap;html=1;fillColor=#fff2cc;strokeColor=#d6b656;" parent="1" vertex="1">
          <mxGeometry x="380" y="550" width="240" height="110" as="geometry" />
        </mxCell>
        <mxCell id="gk7JY4we6GMxA6r-kf3l-26" value="检索到的信息" style="text;html=1;align=center;verticalAlign=middle;whiteSpace=wrap;rounded=0;fontSize=16;" parent="1" vertex="1">
          <mxGeometry x="450" y="550" width="100" height="30" as="geometry" />
        </mxCell>
        <mxCell id="gk7JY4we6GMxA6r-kf3l-39" value="测试用例&lt;div&gt;输出&lt;/div&gt;" style="text;html=1;align=center;verticalAlign=middle;whiteSpace=wrap;rounded=0;fontSize=16;" parent="1" vertex="1">
          <mxGeometry x="641.88" y="620" width="73" height="30" as="geometry" />
        </mxCell>
        <mxCell id="gk7JY4we6GMxA6r-kf3l-41" value="" style="endArrow=classic;html=1;rounded=0;" parent="1" edge="1">
          <mxGeometry width="50" height="50" relative="1" as="geometry">
            <mxPoint x="348.5" y="604.76" as="sourcePoint" />
            <mxPoint x="380.5" y="604.76" as="targetPoint" />
          </mxGeometry>
        </mxCell>
        <mxCell id="gk7JY4we6GMxA6r-kf3l-43" style="edgeStyle=orthogonalEdgeStyle;rounded=0;orthogonalLoop=1;jettySize=auto;html=1;entryX=0.6;entryY=0;entryDx=0;entryDy=0;entryPerimeter=0;" parent="1" source="gk7JY4we6GMxA6r-kf3l-25" target="gk7JY4we6GMxA6r-kf3l-4" edge="1">
          <mxGeometry relative="1" as="geometry" />
        </mxCell>
        <mxCell id="gk7JY4we6GMxA6r-kf3l-44" style="edgeStyle=orthogonalEdgeStyle;rounded=0;orthogonalLoop=1;jettySize=auto;html=1;" parent="1" source="gk7JY4we6GMxA6r-kf3l-40" edge="1">
          <mxGeometry relative="1" as="geometry">
            <mxPoint x="700" y="681" as="targetPoint" />
            <Array as="points">
              <mxPoint x="700" y="662" />
              <mxPoint x="700" y="662" />
            </Array>
          </mxGeometry>
        </mxCell>
        <mxCell id="gk7JY4we6GMxA6r-kf3l-45" value="过滤后的信息" style="rounded=1;whiteSpace=wrap;html=1;fillColor=#fff2cc;strokeColor=#d6b656;fontSize=16;" parent="1" vertex="1">
          <mxGeometry x="450" y="750" width="270" height="30" as="geometry" />
        </mxCell>
        <mxCell id="gk7JY4we6GMxA6r-kf3l-9" value="" style="sketch=0;pointerEvents=1;shadow=0;dashed=0;html=1;strokeColor=#D79B00;fillColor=#D79B00;labelPosition=center;verticalLabelPosition=bottom;verticalAlign=top;outlineConnect=0;align=center;shape=mxgraph.office.concepts.documents;fontColor=#000000;fontSize=16;aspect=fixed;" parent="1" vertex="1">
          <mxGeometry x="490.25" y="580" width="28.03" height="34" as="geometry" />
        </mxCell>
        <mxCell id="gk7JY4we6GMxA6r-kf3l-10" value="相关文本" style="text;html=1;align=center;verticalAlign=middle;whiteSpace=wrap;rounded=0;fontSize=16;" parent="1" vertex="1">
          <mxGeometry x="472.25" y="619.53" width="66.5" height="30" as="geometry" />
        </mxCell>
        <mxCell id="gk7JY4we6GMxA6r-kf3l-6" value="" style="sketch=0;aspect=fixed;pointerEvents=1;shadow=0;dashed=0;html=1;strokeColor=#d79b00;labelPosition=center;verticalLabelPosition=bottom;verticalAlign=top;align=center;fillColor=#D79B00;shape=mxgraph.mscae.enterprise.code_file;" parent="1" vertex="1">
          <mxGeometry x="563.13" y="580" width="31.36" height="32" as="geometry" />
        </mxCell>
        <mxCell id="gk7JY4we6GMxA6r-kf3l-7" value="相关函数&lt;div&gt;代码&lt;/div&gt;" style="text;html=1;align=center;verticalAlign=middle;whiteSpace=wrap;rounded=0;fontSize=16;" parent="1" vertex="1">
          <mxGeometry x="540.5" y="620" width="79.5" height="30" as="geometry" />
        </mxCell>
        <mxCell id="gk7JY4we6GMxA6r-kf3l-12" value="" style="strokeWidth=2;html=1;shape=mxgraph.flowchart.multi-document;whiteSpace=wrap;fillColor=#D79B00;strokeColor=#945800;aspect=fixed;" parent="1" vertex="1">
          <mxGeometry x="412" y="580" width="40" height="29.63" as="geometry" />
        </mxCell>
        <mxCell id="gk7JY4we6GMxA6r-kf3l-13" value="SQL&lt;div&gt;转换样例&lt;/div&gt;" style="text;html=1;align=center;verticalAlign=middle;whiteSpace=wrap;rounded=0;fontSize=16;" parent="1" vertex="1">
          <mxGeometry x="392.25" y="616" width="80" height="30" as="geometry" />
        </mxCell>
        <mxCell id="rMHtlrLWpBGoDZqYdaMv-3" style="edgeStyle=none;curved=1;rounded=0;orthogonalLoop=1;jettySize=auto;html=1;entryX=0.209;entryY=1;entryDx=0;entryDy=0;entryPerimeter=0;fontSize=12;startSize=8;endSize=8;" edge="1" parent="1" source="gk7JY4we6GMxA6r-kf3l-20" target="gk7JY4we6GMxA6r-kf3l-4">
          <mxGeometry relative="1" as="geometry" />
        </mxCell>
        <mxCell id="rMHtlrLWpBGoDZqYdaMv-4" style="edgeStyle=none;curved=1;rounded=0;orthogonalLoop=1;jettySize=auto;html=1;entryX=0.755;entryY=1;entryDx=0;entryDy=0;entryPerimeter=0;fontSize=12;startSize=8;endSize=8;" edge="1" parent="1" source="gk7JY4we6GMxA6r-kf3l-45" target="gk7JY4we6GMxA6r-kf3l-4">
          <mxGeometry relative="1" as="geometry" />
        </mxCell>
      </root>
    </mxGraphModel>
  </diagram>
</mxfile>
